<svg xmlns="http://www.w3.org/2000/svg"><style>:root svg:not(:target){display:none}</style><svg viewBox="0 0 11 20" fill="none" id="arrow-left"><path fill-rule="evenodd" clip-rule="evenodd" d="m9.72 0 1.28 1.32-8.43 8.68 8.43 8.68-1.28 1.32-9.72-10 9.72-10Z" fill="#7859CF"></path></svg><svg viewBox="0 0 11 20" fill="none" id="arrow-right"><path fill-rule="evenodd" clip-rule="evenodd" d="m1.28 0-1.28 1.32 8.43 8.68-8.43 8.68 1.28 1.32 9.72-10-9.72-10Z" fill="#7859CF"></path></svg><svg viewBox="0 0 24 24" fill="none" id="calendar-tick"><path d="M8 2v3m8-3v3m-12.5 4.09h17m1.5 9.91c0 .75-.21 1.46-.58 2.06a3.97 3.97 0 0 1-6.84 0 4 4 0 1 1 7.42-2.06Z" stroke="#292D32" stroke-width="1.5" stroke-miterlimit="10" stroke-linecap="round" stroke-linejoin="round"></path><path d="m16.44 19 .99.99 2.13-1.97" stroke="#292D32" stroke-width="1.5" stroke-linecap="round" stroke-linejoin="round"></path><path d="M21 8.5v7.86a3.98 3.98 0 0 0-7 2.64 3.92 3.92 0 0 0 1.37 3h-7.37c-3.5 0-5-2-5-5v-8.5c0-3 1.5-5 5-5h8c3.5 0 5 2 5 5Z" stroke="#292D32" stroke-width="1.5" stroke-miterlimit="10" stroke-linecap="round" stroke-linejoin="round"></path><path d="M12 13.7h0m-3.7 0h0m0 3h0" stroke="#292D32" stroke-width="2" stroke-linecap="round" stroke-linejoin="round"></path></svg><svg viewBox="0 0 24 24" fill="none" id="call"><path d="M21.97 18.33c0 .36-.08.73-.25 1.09a4.5 4.5 0 0 1-2.32 2.2c-.6.25-1.25.38-1.95.38a8.33 8.33 0 0 1-3.26-.73 17.56 17.56 0 0 1-3.44-1.98 28.75 28.75 0 0 1-3.28-2.8 28.41 28.41 0 0 1-2.79-3.27 17.83 17.83 0 0 1-1.96-3.41 8.42 8.42 0 0 1-.72-3.27c0-.68.12-1.33.36-1.93a4.6 4.6 0 0 1 1.15-1.67 2.93 2.93 0 0 1 2.08-.94c.28 0 .56.06.81.18.26.12.49.3.67.56l2.32 3.27c.18.25.31.48.4.7.09.21.14.42.14.61 0 .24-.07.48-.21.71a3.4 3.4 0 0 1-.56.71l-.76.79a.54.54 0 0 0-.16.4c0 .08.01.15.03.23l.08.2c.18.33.49.76.93 1.28a30.08 30.08 0 0 0 3.04 3.05c.52.44.95.74 1.29.92l.18.08c.08.03.16.04.25.04.17 0 .3-.06.41-.17l.76-.75c.25-.25.49-.44.72-.56.23-.14.46-.21.71-.21.19 0 .39.04.61.13.22.09.45.22.7.39l3.31 2.35c.26.18.44.39.55.64.1.25.16.5.16.78Z" stroke="#292D32" stroke-width="1.5" stroke-miterlimit="10"></path></svg><svg viewBox="0 0 22 19" fill="none" id="check-mark"><path d="m1 8.5 8 8.5 11.5-16" stroke="#BCCACA" stroke-width="2"></path></svg><svg viewBox="0 0 28 28" fill="none" id="instagram"><path d="M20.44 0h-12.88a7.58 7.58 0 0 0-7.56 7.56v12.87c0 4.17 3.4 7.57 7.56 7.57h12.88c4.17 0 7.56-3.4 7.56-7.56v-12.88c0-4.16-3.4-7.56-7.56-7.56Zm5.3 20.44a5.3 5.3 0 0 1-5.3 5.3h-12.88a5.31 5.31 0 0 1-5.3-5.3v-12.88a5.3 5.3 0 0 1 5.3-5.3h12.88a5.3 5.3 0 0 1 5.3 5.3v12.88Z" fill="#F50049"></path><path d="M20.27 13.02a6.27 6.27 0 1 0-12.43 1.84 6.24 6.24 0 0 0 7.14 5.3 6.24 6.24 0 0 0 5.3-7.14Zm-5.62 4.9a4 4 0 1 1 0-7.95 4.03 4.03 0 0 1 0 7.95Zm7.23-11.79a1.13 1.13 0 0 0-1.6 0c-.21.2-.33.5-.33.8a1.14 1.14 0 0 0 1.13 1.13c.3 0 .6-.12.8-.34a1.14 1.14 0 0 0 0-1.6Z" fill="#F50049"></path></svg><svg viewBox="0 0 24 24" fill="none" id="location"><path d="M12 13.43a3.12 3.12 0 1 0 0-6.24 3.12 3.12 0 0 0 0 6.24Z" stroke="#292D32" stroke-width="1.5"></path><path d="M3.62 8.49c1.97-8.66 14.8-8.65 16.76.01 1.15 5.08-2.01 9.38-4.78 12.04a5.2 5.2 0 0 1-7.21 0c-2.76-2.66-5.92-6.97-4.77-12.05Z" stroke="#292D32" stroke-width="1.5"></path></svg><svg viewBox="0 0 18 16" fill="none" id="telegram"><path d="m16.79.96-15.95 6.14c-1.09.44-1.08 1.05-.2 1.32l4.1 1.28 9.47-5.98c.44-.27.85-.13.52.17l-7.68 6.93-.28 4.22c.41 0 .6-.2.83-.41l1.99-1.94 4.13 3.06c.77.42 1.31.2 1.5-.71l2.72-12.8c.28-1.1-.43-1.61-1.16-1.28Z" fill="#83B3D3"></path></svg><svg viewBox="0 0 35 22" fill="none" id="vk"><path d="M32.53 16.35c-.71-.89-1.53-1.7-2.31-2.46l-.84-.83c-.37-.38-.55-.65-.57-.84-.02-.2.11-.48.4-.9.44-.64.9-1.28 1.36-1.9.4-.54.8-1.1 1.2-1.68l.1-.12a13.17 13.17 0 0 0 2-3.67c.12-.4.25-1-.06-1.52s-.88-.67-1.28-.75c-.2-.03-.38-.04-.55-.04h-5.02c-.87-.02-1.47.41-1.8 1.27a34.3 34.3 0 0 1-.92 2.23 18.34 18.34 0 0 1-2.83 4.52l-.05.06c-.09.1-.23.26-.3.29-.14-.09-.3-.6-.29-.87v-6.04l-.01-.1c-.11-.85-.33-1.72-1.64-1.99l-.13-.01h-5.21c-.98 0-1.5.47-1.92.97-.12.15-.44.54-.27 1.02.16.48.65.58.81.62.57.1.87.44.96 1.08.18 1.24.2 2.57.07 4.17a3.43 3.43 0 0 1-.3 1.18.64.64 0 0 1-.14-.08c-.4-.28-.7-.72-1-1.15a28.87 28.87 0 0 1-2.98-5.76c-.35-.9-1-1.39-1.85-1.4-1.6-.03-3.1-.03-4.55 0-.68.01-1.16.23-1.42.66-.26.43-.25.98.03 1.63a58.64 58.64 0 0 0 5.91 10.96 15.46 15.46 0 0 0 4.65 4.51c1.8 1.07 3.8 1.59 6.15 1.59.26 0 .53 0 .81-.02 1.44-.07 2.03-.66 2.1-2.13.03-.77.11-1.4.4-1.94.08-.16.17-.26.25-.28.07-.02.2.03.36.13a4 4 0 0 1 .7.66l.59.67c.4.48.83.97 1.27 1.44a4.16 4.16 0 0 0 3.44 1.44h4.63c.53-.03.99-.34 1.26-.83a2.2 2.2 0 0 0-.02-2.02 10.1 10.1 0 0 0-1.19-1.77Zm.07 3.14c-.07.11-.15.14-.18.14h-4.64c-.9.08-1.67-.26-2.42-1.04a49.12 49.12 0 0 1-1.83-2.08c-.25-.28-.56-.6-.96-.88-.6-.4-1.1-.38-1.4-.3-.3.08-.74.3-1.08.93-.43.82-.53 1.7-.56 2.54-.02.51-.1.65-.15.68-.04.05-.2.12-.7.15a10.8 10.8 0 0 1-6.24-1.39 14.03 14.03 0 0 1-4.24-4.14c-2.03-2.85-3.8-6.15-5.78-10.7a.99.99 0 0 1-.1-.32.93.93 0 0 1 .33-.04c1.43-.03 2.9-.03 4.5 0 .21 0 .46.07.65.55a30.24 30.24 0 0 0 3.13 6.03 5.5 5.5 0 0 0 1.32 1.49c.54.39.99.37 1.26.29.27-.09.65-.32.91-.95.17-.4.27-.86.32-1.45.14-1.72.11-3.14-.08-4.49-.14-.96-.62-1.66-1.37-2.02a1 1 0 0 1 .5-.1h5.14c.3.07.35.15.37.18.08.11.13.39.16.6v5.97c0 .57.27 1.84 1.17 2.19h.03c.83.29 1.38-.32 1.67-.65l.05-.06a19.5 19.5 0 0 0 3.05-4.86c.38-.8.7-1.62.97-2.33.14-.35.26-.41.56-.4h5.03c.12 0 .24 0 .34.02a1 1 0 0 1 .36.11c.01.04 0 .16-.07.4-.37 1.18-1.07 2.2-1.8 3.27l-.1.12c-.39.56-.8 1.12-1.2 1.67-.45.62-.92 1.27-1.36 1.92-.96 1.38-.87 2.3.32 3.5.28.3.57.58.85.85.8.78 1.54 1.52 2.2 2.35.35.43.75.96 1.03 1.54.15.3.11.57.04.7Z" fill="#F50049" stroke="#F50049" stroke-miterlimit="10"></path></svg><svg viewBox="0 0 28 22" fill="none" id="vkontakte"><path d="M1 5.34c0-.86.52-1.32 1.55-1.38l3.97.02c.26 0 .44.13.53.38.4 1.26.86 2.34 1.37 3.25.5.92 1.17 1.97 1.99 3.16.07.15.18.23.34.23.13 0 .22-.06.3-.18l.07-.28.03-4.35c0-.3-.07-.5-.23-.6-.15-.1-.43-.18-.83-.23-.32-.05-.48-.23-.48-.55 0-.07 0-.12.02-.15.38-1.09 1.44-1.63 3.2-1.63l1.5-.03c.67 0 1.23.16 1.67.48.44.32.67.82.67 1.5v5.72c.12.08.24.12.34.12.27 0 .5-.15.7-.45 1.95-2.58 3-4.31 3.17-5.18a.3.3 0 0 1 .05-.13c.12-.25.33-.47.61-.65.29-.19.53-.31.75-.38a.55.55 0 0 1 .24-.05h4.13l.26.03c.36 0 .63.16.83.47.07.1.12.21.15.33a2.4 2.4 0 0 1 .06.55v.18a6.11 6.11 0 0 1-.94 2.2 23.4 23.4 0 0 1-1.93 2.53c-.79.9-1.27 1.5-1.47 1.78a.93.93 0 0 0-.24.56c0 .13.07.28.21.45l3.9 4.63c.2.26.31.56.31.88 0 .38-.16.7-.48.95-.32.25-.7.4-1.14.43l-.46.02h-4.04c-.02 0-.06 0-.11.02a.86.86 0 0 1-.1.01c-.4 0-.76-.16-1.1-.48-.12-.13-.96-1.12-2.5-2.97a1.39 1.39 0 0 0-.38-.32 38.47 38.47 0 0 0-.53 2.24l-.08.42a1.4 1.4 0 0 1-1.12 1.06l-.37.02h-2.61c-1.48 0-2.95-.63-4.41-1.9a19.3 19.3 0 0 1-3.96-4.95 47.51 47.51 0 0 1-3.28-7.05 1.92 1.92 0 0 1-.13-.73Zm16.01 6.51c-.37 0-.7-.1-1.01-.29a.9.9 0 0 1-.45-.79v-5.78c0-.34-.1-.58-.27-.72-.18-.14-.49-.21-.93-.21l-1.52.05c-.76 0-1.34.12-1.73.37.78.36 1.17.93 1.17 1.71v4.43a1.5 1.5 0 0 1-.53 1.04 1.6 1.6 0 0 1-1.07.42c-.53 0-.94-.24-1.22-.73a26.16 26.16 0 0 1-3.1-5.63l-.23-.66-3.55-.02c-.23 0-.36.01-.38.03-.03.03-.04.1-.04.22 0 .15.01.3.05.48l.56 1.4c1.49 3.64 3.11 6.51 4.86 8.6 1.75 2.1 3.47 3.15 5.16 3.15h2.66c.1 0 .19-.03.24-.09.05-.06.1-.17.13-.34l.06-.25.5-2.21c.15-.3.27-.5.38-.6.2-.2.42-.28.69-.28.43 0 .86.24 1.3.73l2.27 2.71c.14.22.3.33.45.33h4.4c.53 0 .8-.13.8-.38a.47.47 0 0 0-.08-.25l-3.87-4.55c-.3-.35-.45-.73-.45-1.13 0-.4.14-.8.43-1.16.23-.34.68-.9 1.34-1.67.67-.78 1.25-1.51 1.75-2.19.5-.68.82-1.3.98-1.85l.08-.33a.37.37 0 0 1-.02-.16.54.54 0 0 0-.03-.19h-4.18c-.27.1-.48.25-.64.45l-.16.48c-.45 1.16-1.6 2.94-3.5 5.36-.36.33-.8.5-1.3.5Z" fill="#666"></path></svg><svg viewBox="0 0 24 24" fill="none" id="whatsapp"><path d="M6.9 20.6a10.03 10.03 0 0 0 15.1-8.6c0-5.5-4.5-10-10-10a10.03 10.03 0 0 0-8.7 15l-.86 3.3a1 1 0 0 0 1.24 1.22l3.22-.92Z" stroke="#17191C" stroke-width="1.5" stroke-miterlimit="10" stroke-linecap="round" stroke-linejoin="round"></path><path d="M16.5 14.85c0 .16-.04.33-.11.49a2.03 2.03 0 0 1-1.05.99 2.3 2.3 0 0 1-.88.17c-.46 0-.95-.1-1.47-.33a7.92 7.92 0 0 1-1.55-.89 12.95 12.95 0 0 1-2.73-2.73 8.02 8.02 0 0 1-.89-1.54c-.21-.5-.32-1-.32-1.47a2.16 2.16 0 0 1 .68-1.62c.29-.28.6-.42.94-.42a.9.9 0 0 1 .36.08c.12.05.22.14.3.25l1.05 1.47c.08.12.14.22.18.32.04.1.06.19.06.27 0 .11-.03.22-.1.32-.05.1-.13.21-.24.32l-.35.36a.24.24 0 0 0-.07.18c0 .03 0 .07.02.1 0 .04.02.06.03.1.08.14.22.33.42.57a15.37 15.37 0 0 0 1.37 1.37c.24.2.43.33.58.41l.08.04.12.02c.07 0 .13-.03.18-.08l.34-.34c.12-.1.22-.2.33-.25.1-.06.2-.1.32-.1.08 0 .17.03.27.07.1.04.2.1.32.17l1.49 1.06c.12.08.2.17.25.29a1 1 0 0 1 .07.35Z" stroke="#17191C" stroke-width="1.5" stroke-miterlimit="10"></path></svg><svg viewBox="0 0 28 22" fill="none" id="youtube"><path d="m17.85 10.8-5.24-3.5a.65.65 0 0 0-1.01.55v6.98a.65.65 0 0 0 1.01.54l5.24-3.49a.65.65 0 0 0 0-1.09Zm-4.94 2.8v-4.53l3.4 2.27-3.4 2.27Zm12.48-8.56a2.4 2.4 0 0 0-1.45-1.63c-3.72-1.43-9.69-1.41-9.94-1.41s-6.22-.02-9.94 1.4a2.4 2.4 0 0 0-1.45 1.64 25.32 25.32 0 0 0-.61 6.3c0 3.26.33 5.22.61 6.3a2.4 2.4 0 0 0 1.45 1.63c3.72 1.43 9.69 1.4 9.94 1.4h.08c.75 0 6.31-.04 9.86-1.4a2.4 2.4 0 0 0 1.45-1.64c.28-1.07.61-3.03.61-6.3 0-3.25-.33-5.22-.61-6.29Zm-1.27 12.27a1.1 1.1 0 0 1-.65.74c-3.5 1.34-9.4 1.32-9.47 1.32-.07 0-5.98.02-9.47-1.32a1.09 1.09 0 0 1-.65-.74c-.27-1-.57-2.85-.57-5.97 0-3.12.3-4.97.57-5.97a1.1 1.1 0 0 1 .65-.74c3.5-1.34 9.4-1.32 9.47-1.32.07 0 5.98-.02 9.47 1.32a1.1 1.1 0 0 1 .65.74c.27 1 .57 2.85.57 5.97 0 3.12-.3 4.96-.57 5.97Z" fill="#666"></path></svg></svg>