<svg viewBox="0 0 24 24" fill="none" xmlns="http://www.w3.org/2000/svg"><path d="M8 2v3m8-3v3m-12.5 4.09h17m1.5 9.91c0 .75-.21 1.46-.58 2.06a3.97 3.97 0 0 1-6.84 0 4 4 0 1 1 7.42-2.06Z" stroke="#292D32" stroke-width="1.5" stroke-miterlimit="10" stroke-linecap="round" stroke-linejoin="round"/><path d="m16.44 19 .99.99 2.13-1.97" stroke="#292D32" stroke-width="1.5" stroke-linecap="round" stroke-linejoin="round"/><path d="M21 8.5v7.86a3.98 3.98 0 0 0-7 2.64 3.92 3.92 0 0 0 1.37 3h-7.37c-3.5 0-5-2-5-5v-8.5c0-3 1.5-5 5-5h8c3.5 0 5 2 5 5Z" stroke="#292D32" stroke-width="1.5" stroke-miterlimit="10" stroke-linecap="round" stroke-linejoin="round"/><path d="M12 13.7h0m-3.7 0h0m0 3h0" stroke="#292D32" stroke-width="2" stroke-linecap="round" stroke-linejoin="round"/></svg>