<svg viewBox="0 0 28 28" fill="none" xmlns="http://www.w3.org/2000/svg"><path d="M20.44 0h-12.88a7.58 7.58 0 0 0-7.56 7.56v12.87c0 4.17 3.4 7.57 7.56 7.57h12.88c4.17 0 7.56-3.4 7.56-7.56v-12.88c0-4.16-3.4-7.56-7.56-7.56Zm5.3 20.44a5.3 5.3 0 0 1-5.3 5.3h-12.88a5.31 5.31 0 0 1-5.3-5.3v-12.88a5.3 5.3 0 0 1 5.3-5.3h12.88a5.3 5.3 0 0 1 5.3 5.3v12.88Z" fill="#F50049"/><path d="M20.27 13.02a6.27 6.27 0 1 0-12.43 1.84 6.24 6.24 0 0 0 7.14 5.3 6.24 6.24 0 0 0 5.3-7.14Zm-5.62 4.9a4 4 0 1 1 0-7.95 4.03 4.03 0 0 1 0 7.95Zm7.23-11.79a1.13 1.13 0 0 0-1.6 0c-.21.2-.33.5-.33.8a1.14 1.14 0 0 0 1.13 1.13c.3 0 .6-.12.8-.34a1.14 1.14 0 0 0 0-1.6Z" fill="#F50049"/></svg>