<svg viewBox="0 0 35 22" fill="none" xmlns="http://www.w3.org/2000/svg"><path d="M32.53 16.35c-.71-.89-1.53-1.7-2.31-2.46l-.84-.83c-.37-.38-.55-.65-.57-.84-.02-.2.11-.48.4-.9.44-.64.9-1.28 1.36-1.9.4-.54.8-1.1 1.2-1.68l.1-.12a13.17 13.17 0 0 0 2-3.67c.12-.4.25-1-.06-1.52s-.88-.67-1.28-.75c-.2-.03-.38-.04-.55-.04h-5.02c-.87-.02-1.47.41-1.8 1.27a34.3 34.3 0 0 1-.92 2.23 18.34 18.34 0 0 1-2.83 4.52l-.05.06c-.09.1-.23.26-.3.29-.14-.09-.3-.6-.29-.87v-6.04l-.01-.1c-.11-.85-.33-1.72-1.64-1.99l-.13-.01h-5.21c-.98 0-1.5.47-1.92.97-.12.15-.44.54-.27 1.02.16.48.65.58.81.62.57.1.87.44.96 1.08.18 1.24.2 2.57.07 4.17a3.43 3.43 0 0 1-.3 1.18.64.64 0 0 1-.14-.08c-.4-.28-.7-.72-1-1.15a28.87 28.87 0 0 1-2.98-5.76c-.35-.9-1-1.39-1.85-1.4-1.6-.03-3.1-.03-4.55 0-.68.01-1.16.23-1.42.66-.26.43-.25.98.03 1.63a58.64 58.64 0 0 0 5.91 10.96 15.46 15.46 0 0 0 4.65 4.51c1.8 1.07 3.8 1.59 6.15 1.59.26 0 .53 0 .81-.02 1.44-.07 2.03-.66 2.1-2.13.03-.77.11-1.4.4-1.94.08-.16.17-.26.25-.28.07-.02.2.03.36.13a4 4 0 0 1 .7.66l.59.67c.4.48.83.97 1.27 1.44a4.16 4.16 0 0 0 3.44 1.44h4.63c.53-.03.99-.34 1.26-.83a2.2 2.2 0 0 0-.02-2.02 10.1 10.1 0 0 0-1.19-1.77Zm.07 3.14c-.07.11-.15.14-.18.14h-4.64c-.9.08-1.67-.26-2.42-1.04a49.12 49.12 0 0 1-1.83-2.08c-.25-.28-.56-.6-.96-.88-.6-.4-1.1-.38-1.4-.3-.3.08-.74.3-1.08.93-.43.82-.53 1.7-.56 2.54-.02.51-.1.65-.15.68-.04.05-.2.12-.7.15a10.8 10.8 0 0 1-6.24-1.39 14.03 14.03 0 0 1-4.24-4.14c-2.03-2.85-3.8-6.15-5.78-10.7a.99.99 0 0 1-.1-.32.93.93 0 0 1 .33-.04c1.43-.03 2.9-.03 4.5 0 .21 0 .46.07.65.55a30.24 30.24 0 0 0 3.13 6.03 5.5 5.5 0 0 0 1.32 1.49c.54.39.99.37 1.26.29.27-.09.65-.32.91-.95.17-.4.27-.86.32-1.45.14-1.72.11-3.14-.08-4.49-.14-.96-.62-1.66-1.37-2.02a1 1 0 0 1 .5-.1h5.14c.3.07.35.15.37.18.08.11.13.39.16.6v5.97c0 .57.27 1.84 1.17 2.19h.03c.83.29 1.38-.32 1.67-.65l.05-.06a19.5 19.5 0 0 0 3.05-4.86c.38-.8.7-1.62.97-2.33.14-.35.26-.41.56-.4h5.03c.12 0 .24 0 .34.02a1 1 0 0 1 .36.11c.01.04 0 .16-.07.4-.37 1.18-1.07 2.2-1.8 3.27l-.1.12c-.39.56-.8 1.12-1.2 1.67-.45.62-.92 1.27-1.36 1.92-.96 1.38-.87 2.3.32 3.5.28.3.57.58.85.85.8.78 1.54 1.52 2.2 2.35.35.43.75.96 1.03 1.54.15.3.11.57.04.7Z" fill="#F50049" stroke="#F50049" stroke-miterlimit="10"/></svg>