<svg viewBox="0 0 24 24" fill="none" xmlns="http://www.w3.org/2000/svg"><path d="M6.9 20.6a10.03 10.03 0 0 0 15.1-8.6c0-5.5-4.5-10-10-10a10.03 10.03 0 0 0-8.7 15l-.86 3.3a1 1 0 0 0 1.24 1.22l3.22-.92Z" stroke="#17191C" stroke-width="1.5" stroke-miterlimit="10" stroke-linecap="round" stroke-linejoin="round"/><path d="M16.5 14.85c0 .16-.04.33-.11.49a2.03 2.03 0 0 1-1.05.99 2.3 2.3 0 0 1-.88.17c-.46 0-.95-.1-1.47-.33a7.92 7.92 0 0 1-1.55-.89 12.95 12.95 0 0 1-2.73-2.73 8.02 8.02 0 0 1-.89-1.54c-.21-.5-.32-1-.32-1.47a2.16 2.16 0 0 1 .68-1.62c.29-.28.6-.42.94-.42a.9.9 0 0 1 .36.08c.12.05.22.14.3.25l1.05 1.47c.08.12.14.22.18.32.04.1.06.19.06.27 0 .11-.03.22-.1.32-.05.1-.13.21-.24.32l-.35.36a.24.24 0 0 0-.07.18c0 .03 0 .07.02.1 0 .04.02.06.03.1.08.14.22.33.42.57a15.37 15.37 0 0 0 1.37 1.37c.24.2.43.33.58.41l.08.04.12.02c.07 0 .13-.03.18-.08l.34-.34c.12-.1.22-.2.33-.25.1-.06.2-.1.32-.1.08 0 .17.03.27.07.1.04.2.1.32.17l1.49 1.06c.12.08.2.17.25.29a1 1 0 0 1 .07.35Z" stroke="#17191C" stroke-width="1.5" stroke-miterlimit="10"/></svg>